<?xml version="1.0" standalone="no"?>
<!DOCTYPE svg PUBLIC "-//W3C//DTD SVG 20010904//EN"
 "http://www.w3.org/TR/2001/REC-SVG-20010904/DTD/svg10.dtd">
<svg version="1.0" xmlns="http://www.w3.org/2000/svg"
 width="50.000000pt" height="50.000000pt" viewBox="0 0 50.000000 50.000000"
 preserveAspectRatio="xMidYMid meet">

<g transform="translate(0.000000,50.000000) scale(0.100000,-0.100000)"
fill="#000000" stroke="none">
<path d="M104 489 c-67 -19 -113 -102 -99 -178 13 -73 45 -122 138 -216 51
-52 99 -95 107 -95 22 0 186 169 214 220 60 110 38 222 -50 262 -40 17 -53 19
-83 9 -20 -6 -46 -20 -58 -31 -15 -13 -24 -16 -29 -9 -7 12 -83 49 -99 48 -5
0 -24 -5 -41 -10z m80 -23 c18 -8 40 -23 48 -35 l15 -22 32 30 c43 40 82 47
129 24 71 -35 90 -125 47 -218 -11 -22 -61 -83 -112 -135 l-92 -95 -89 90
c-94 95 -127 147 -138 213 -9 56 22 123 67 145 42 20 51 21 93 3z"/>
</g>
</svg>
