<?xml version="1.0" standalone="no"?>
<!DOCTYPE svg PUBLIC "-//W3C//DTD SVG 20010904//EN"
 "http://www.w3.org/TR/2001/REC-SVG-20010904/DTD/svg10.dtd">
<svg version="1.0" xmlns="http://www.w3.org/2000/svg"
 width="50.000000pt" height="50.000000pt" viewBox="0 0 50.000000 50.000000"
 preserveAspectRatio="xMidYMid meet">

<g transform="translate(0.000000,50.000000) scale(0.100000,-0.100000)"
fill="#000000" stroke="none">
<path d="M150 350 c-45 -45 -11 -134 77 -203 21 -17 24 -17 48 -1 49 32 95
103 95 145 0 53 -30 83 -73 75 -18 -4 -39 -7 -47 -7 -8 0 -29 3 -47 7 -24 5
-36 1 -53 -16z m82 -7 c17 -15 19 -15 36 0 38 34 92 8 92 -45 0 -39 -20 -75
-69 -123 l-41 -39 -41 39 c-48 47 -69 84 -69 121 0 55 53 82 92 47z"/>
</g>
</svg>
